<?xml version="1.0" standalone="no"?>
<!DOCTYPE svg PUBLIC "-//W3C//DTD SVG 20010904//EN"
 "http://www.w3.org/TR/2001/REC-SVG-20010904/DTD/svg10.dtd">
<svg version="1.0" xmlns="http://www.w3.org/2000/svg"
 width="365.000000pt" height="365.000000pt" viewBox="0 0 365.000000 365.000000"
 preserveAspectRatio="xMidYMid meet">
<metadata>
Created by potrace 1.14, written by Peter Selinger 2001-2017
</metadata>
<g transform="translate(0.000000,365.000000) scale(0.100000,-0.100000)"
fill="#000000" stroke="none">
<path d="M888 2837 c-16 -13 -28 -27 -28 -32 0 -6 3 -6 8 0 4 6 20 21 36 33
16 12 25 22 20 22 -5 -1 -21 -11 -36 -23z"/>
<path d="M1799 2833 c-13 -17 -13 -17 6 -3 11 8 22 16 24 17 2 2 0 3 -6 3 -6
0 -17 -8 -24 -17z"/>
<path d="M2837 2833 c-4 -3 -7 -11 -7 -17 0 -6 5 -5 12 2 6 6 9 14 7 17 -3 3
-9 2 -12 -2z"/>
<path d="M1190 2690 c0 -5 5 -10 11 -10 5 0 7 5 4 10 -3 6 -8 10 -11 10 -2 0
-4 -4 -4 -10z"/>
<path d="M1230 2689 c0 -5 5 -7 11 -3 6 3 15 0 20 -7 7 -11 9 -10 9 4 0 10 -8
17 -20 17 -11 0 -20 -5 -20 -11z"/>
<path d="M874 2458 c-3 -4 6 -8 20 -8 14 0 26 4 26 8 0 4 -9 8 -21 8 -11 0
-23 -4 -25 -8z"/>
<path d="M1730 2450 c0 -6 7 -10 15 -10 8 0 15 2 15 4 0 2 -7 6 -15 10 -8 3
-15 1 -15 -4z"/>
<path d="M1678 2414 c-16 -8 -28 -19 -28 -24 0 -13 17 -13 26 1 3 6 15 9 25 6
14 -4 19 0 19 14 0 23 -6 23 -42 3z"/>
<path d="M2140 2414 c0 -8 5 -12 10 -9 6 4 8 11 5 16 -9 14 -15 11 -15 -7z"/>
<path d="M1730 2409 c0 -5 5 -7 10 -4 6 3 10 8 10 11 0 2 -4 4 -10 4 -5 0 -10
-5 -10 -11z"/>
<path d="M1410 2369 c0 -5 5 -7 10 -4 6 3 10 8 10 11 0 2 -4 4 -10 4 -5 0 -10
-5 -10 -11z"/>
<path d="M1590 2360 c0 -5 5 -10 10 -10 6 0 10 5 10 10 0 6 -4 10 -10 10 -5 0
-10 -4 -10 -10z"/>
<path d="M1536 2334 c-26 -19 -17 -26 13 -10 13 7 20 16 15 19 -5 3 -18 -1
-28 -9z"/>
<path d="M1592 2319 c2 -6 8 -10 13 -10 5 0 11 4 13 10 2 6 -4 11 -13 11 -9 0
-15 -5 -13 -11z"/>
<path d="M1455 2280 c-3 -5 -1 -10 4 -10 6 0 11 5 11 10 0 6 -2 10 -4 10 -3 0
-8 -4 -11 -10z"/>
<path d="M972 2264 c-26 -19 -7 -28 64 -31 96 -3 234 -74 194 -98 -6 -4 -10
-11 -10 -17 0 -7 5 -6 15 2 12 10 16 8 25 -15 5 -14 10 -33 10 -40 0 -21 59
-62 108 -75 39 -10 154 -8 232 5 87 15 134 26 161 41 24 12 33 13 39 4 5 -9 9
-9 14 -1 4 6 4 11 -1 11 -4 0 3 6 17 13 39 21 43 -2 15 -91 l-25 -79 -85 -22
c-57 -16 -83 -27 -78 -34 3 -7 -3 -4 -14 6 -24 21 -37 22 -30 3 4 -10 -7 -17
-36 -25 -23 -6 -64 -17 -90 -25 -26 -9 -45 -11 -42 -6 3 5 1 11 -5 15 -6 4 -8
11 -5 16 4 5 2 9 -2 9 -5 0 -17 14 -27 31 -31 53 -121 76 -170 44 -24 -16 -39
-45 -50 -97 -5 -22 -12 -28 -34 -28 -46 0 -52 10 -40 64 7 33 13 44 19 35 4
-7 11 -10 15 -6 4 4 1 15 -7 24 -9 10 -20 30 -27 45 -15 36 -53 59 -107 66
-42 4 -47 2 -85 -37 -31 -32 -42 -38 -46 -26 -4 8 -12 15 -20 15 -8 0 -14 2
-14 5 0 2 18 66 39 142 40 138 40 152 4 153 -7 0 -22 -33 -34 -73 l-21 -73
-71 24 c-40 13 -103 26 -142 28 -96 7 -125 -11 -171 -110 -78 -169 -143 -409
-151 -553 -5 -91 -3 -105 15 -135 25 -39 86 -92 168 -143 32 -21 60 -39 62
-40 1 -1 -16 -61 -38 -133 -22 -72 -40 -143 -40 -157 0 -71 162 -177 375 -245
94 -31 104 -37 170 -101 74 -72 105 -98 118 -99 5 0 6 132 3 294 l-6 293 182
-2 c101 -1 199 -6 218 -11 99 -26 183 -95 224 -183 18 -39 21 -65 21 -176 0
-119 -2 -135 -26 -185 -48 -102 -111 -154 -227 -189 l-57 -18 72 -16 c183 -43
367 -44 533 -3 l55 14 -97 1 -98 1 0 380 0 380 40 0 c31 0 40 4 40 18 0 11 3
13 8 6 9 -14 41 -17 157 -14 140 3 262 -36 302 -97 9 -13 18 -54 20 -91 4 -58
2 -71 -19 -102 -13 -19 -37 -44 -55 -55 l-31 -21 43 -27 c50 -32 75 -78 75
-136 0 -23 3 -41 7 -41 4 0 23 15 43 33 29 28 55 39 145 62 219 55 357 121
397 190 17 29 16 34 -16 176 l-32 147 41 20 c128 62 220 141 231 198 14 77
-17 275 -80 506 -46 167 -86 255 -123 269 -43 17 -131 13 -207 -11 -38 -12
-72 -18 -76 -13 -4 4 -18 56 -30 116 -13 59 -29 107 -35 107 -6 0 -24 -13 -40
-30 -27 -28 -27 -30 -8 -30 25 0 25 0 53 -143 18 -89 19 -111 9 -124 -11 -13
-10 -17 4 -28 17 -12 52 -123 43 -132 -3 -3 -19 -6 -37 -6 -27 -2 -33 2 -43
30 -15 45 -31 40 -29 -7 l2 -40 -74 0 c-77 0 -85 5 -85 53 l0 21 20 -22 c46
-49 97 -15 109 73 12 88 0 240 -19 240 -12 0 -15 -13 -15 -60 -1 -145 -6 -202
-19 -220 -13 -18 -14 -17 -31 9 -13 20 -19 51 -21 114 -2 48 -6 124 -9 170 -4
54 -3 82 4 82 6 0 11 5 11 10 0 6 -6 10 -13 10 -8 0 -22 9 -33 21 -15 17 -27
20 -59 15 -22 -2 -67 -8 -100 -12 -33 -4 -63 -11 -66 -16 -3 -5 -35 -12 -70
-15 -39 -3 -72 -12 -84 -23 -26 -22 -91 -40 -146 -40 -58 0 -112 -15 -179 -50
-87 -45 -160 -71 -215 -76 -27 -2 -72 -9 -100 -14 -55 -12 -160 -4 -195 14
-19 9 -47 75 -50 118 0 4 34 28 75 54 42 25 74 49 71 51 -3 3 -11 1 -18 -3 -7
-5 -19 -9 -26 -10 -8 -2 -21 -9 -30 -17 -10 -7 -34 -24 -55 -36 l-37 -23 -34
30 c-42 37 -83 51 -176 61 -51 5 -76 4 -88 -5z m1523 -76 l54 4 0 -114 c-1
-62 2 -134 5 -160 4 -33 1 -50 -9 -58 -8 -7 -15 -20 -15 -29 0 -9 -6 -23 -12
-30 -11 -11 -10 -13 5 -8 11 4 17 1 17 -8 0 -10 -10 -15 -30 -15 -16 0 -30 5
-30 11 0 6 -7 8 -17 5 -10 -4 -14 -4 -10 0 4 4 -13 27 -37 50 -33 31 -42 44
-33 53 8 8 6 11 -6 11 -10 0 -20 -7 -23 -15 -3 -8 -21 -17 -40 -21 -37 -7 -84
-54 -84 -84 0 -17 -26 -30 -62 -30 -9 0 -30 14 -46 30 -25 25 -39 30 -77 30
-40 0 -52 -5 -81 -34 -19 -19 -34 -41 -34 -51 0 -12 -8 -16 -32 -13 -29 3 -33
7 -36 36 -4 38 99 377 109 360 4 -7 71 2 198 26 106 20 203 36 216 36 13 0 30
6 37 14 7 8 14 11 16 7 1 -4 27 -5 57 -3z m-1425 -244 c13 -13 11 -15 -20 -13
-20 2 -40 0 -45 -3 -6 -4 -18 0 -28 7 -18 13 -18 14 0 24 22 13 72 4 93 -15z
m-400 -5 c3 -4 26 -17 51 -30 l46 -24 -82 -268 c-46 -148 -85 -271 -88 -274
-8 -7 -91 72 -122 117 -24 35 -27 47 -22 93 9 86 105 351 138 379 19 16 68 20
79 7z m196 -30 c4 -8 9 -7 15 2 7 11 9 9 10 -6 2 -24 -1 -48 -7 -54 -2 -2 -16
2 -32 8 -23 10 -28 17 -24 37 4 25 26 32 38 13z m164 -10 c0 -5 7 -6 15 -3 10
4 15 0 15 -12 1 -18 2 -18 17 1 15 19 15 19 9 -5 -4 -14 -9 -37 -12 -52 -8
-33 -6 -33 -89 -12 l-63 16 11 31 c5 18 15 35 21 39 15 10 76 7 76 -3z m2100
-19 c0 -5 -2 -10 -4 -10 -3 0 -8 5 -11 10 -3 6 -1 10 4 10 6 0 11 -4 11 -10z
m-1786 -14 c36 -15 51 -43 41 -75 -9 -30 -84 -39 -123 -15 -27 15 -29 20 -20
46 9 26 42 58 61 58 4 0 23 -6 41 -14z m1746 -58 c10 -31 20 -44 30 -41 12 4
13 3 1 -5 -12 -8 -10 -25 13 -103 32 -115 46 -189 46 -242 0 -38 -6 -47 -70
-110 -39 -38 -76 -67 -82 -65 -10 4 -142 548 -134 554 8 7 164 61 171 60 6 -1
17 -23 25 -48z m127 2 c-6 -16 -15 -26 -20 -21 -10 10 12 63 24 56 4 -3 2 -19
-4 -35z m-829 4 c43 -30 28 -44 -48 -44 -38 0 -70 4 -70 8 0 13 32 39 55 45
34 8 40 7 63 -9z m-289 -58 c14 -16 8 -21 -35 -30 -18 -4 -40 -16 -50 -27 -9
-10 -22 -19 -28 -19 -6 0 -2 7 8 15 19 15 19 15 -2 15 -29 0 -28 14 4 39 31
24 86 28 103 7z m-224 -156 c-3 -5 -12 -10 -18 -10 -7 0 -6 4 3 10 19 12 23
12 15 0z m-490 -109 c-3 -6 -11 -11 -16 -11 -5 0 -4 6 3 14 14 16 24 13 13 -3z
m1492 -8 c2 -6 -4 -19 -14 -29 -17 -17 -18 -17 -21 0 -8 37 24 63 35 29z
m-1587 -12 c0 -4 -13 -6 -30 -3 -16 2 -28 8 -25 12 5 9 55 1 55 -9z m1292 -3
c-7 -7 -12 -8 -12 -2 0 14 12 26 19 19 2 -3 -1 -11 -7 -17z m721 -23 c7 -16
-8 -29 -23 -20 -15 9 -12 35 4 35 8 0 16 -7 19 -15z m-423 -45 c-6 -12 -14
-19 -17 -16 -4 3 0 18 8 32 7 14 15 21 17 15 2 -5 -2 -20 -8 -31z m-1480 0
c12 -8 12 -10 1 -10 -9 0 -12 -9 -9 -30 3 -19 0 -31 -10 -35 -12 -4 -13 1 -8
26 3 18 1 38 -5 45 -14 17 7 19 31 4z m1405 -49 c-3 -6 -14 -11 -23 -11 -15 1
-15 2 2 15 21 16 32 13 21 -4z m-320 -21 c18 -8 17 -9 -7 -9 -16 -1 -28 -6
-28 -13 0 -6 -2 -9 -5 -6 -7 6 5 38 14 37 3 0 15 -4 26 -9z m125 -10 c0 -5 -9
-10 -20 -10 -11 0 -20 5 -20 10 0 6 9 10 20 10 11 0 20 -4 20 -10z m654 -24
c-3 -9 -12 -16 -20 -16 -20 0 -17 28 4 32 22 5 24 4 16 -16z m-1604 0 c0 -9
-7 -12 -20 -9 -11 3 -20 9 -20 14 0 5 9 9 20 9 11 0 20 -6 20 -14z m-299 -72
c-5 -16 -10 -21 -10 -12 -1 18 10 51 15 45 2 -1 -1 -16 -5 -33z m1059 -8 c0
-2 -7 -7 -16 -10 -8 -3 -12 -2 -9 4 6 10 25 14 25 6z m-1430 -346 c0 -5 -4
-10 -9 -10 -6 0 -13 5 -16 10 -3 6 1 10 9 10 9 0 16 -4 16 -10z m1810 -117 c0
-5 -4 -14 -9 -22 -7 -11 -12 -11 -32 0 l-24 13 30 7 c17 4 31 7 33 8 1 0 2 -2
2 -6z"/>
<path d="M2520 2089 c0 -5 5 -7 10 -4 6 3 10 8 10 11 0 2 -4 4 -10 4 -5 0 -10
-5 -10 -11z"/>
<path d="M2445 2080 c-3 -5 -1 -10 4 -10 6 0 11 5 11 10 0 6 -2 10 -4 10 -3 0
-8 -4 -11 -10z"/>
<path d="M2260 2041 c-7 -15 -7 -21 0 -21 12 0 25 28 17 36 -3 3 -10 -4 -17
-15z"/>
<path d="M2455 2030 c3 -5 8 -10 11 -10 2 0 4 5 4 10 0 6 -5 10 -11 10 -5 0
-7 -4 -4 -10z"/>
<path d="M2220 2020 c0 -5 5 -10 10 -10 6 0 10 5 10 10 0 6 -4 10 -10 10 -5 0
-10 -4 -10 -10z"/>
<path d="M2351 1971 c-7 -5 -9 -11 -4 -14 6 -4 19 0 29 8 15 11 16 14 4 15 -8
0 -21 -4 -29 -9z"/>
<path d="M845 1900 c-3 -5 -1 -10 4 -10 6 0 11 5 11 10 0 6 -2 10 -4 10 -3 0
-8 -4 -11 -10z"/>
<path d="M960 1840 c0 -5 5 -10 11 -10 5 0 7 5 4 10 -3 6 -8 10 -11 10 -2 0
-4 -4 -4 -10z"/>
<path d="M1295 1838 c-10 -25 -3 -39 14 -29 10 6 11 13 3 27 -10 18 -11 18
-17 2z"/>
<path d="M2620 2260 c0 -5 5 -10 10 -10 6 0 10 5 10 10 0 6 -4 10 -10 10 -5 0
-10 -4 -10 -10z"/>
<path d="M2665 2261 c-3 -5 -1 -12 5 -16 5 -3 10 1 10 9 0 18 -6 21 -15 7z"/>
<path d="M1705 2240 c-3 -5 -1 -10 4 -10 6 0 11 5 11 10 0 6 -2 10 -4 10 -3 0
-8 -4 -11 -10z"/>
<path d="M1990 2190 c0 -5 5 -10 10 -10 6 0 10 5 10 10 0 6 -4 10 -10 10 -5 0
-10 -4 -10 -10z"/>
<path d="M1180 2069 c0 -5 5 -7 10 -4 6 3 10 8 10 11 0 2 -4 4 -10 4 -5 0 -10
-5 -10 -11z"/>
<path d="M1510 2061 c0 -5 9 -11 20 -14 24 -6 27 8 4 17 -21 8 -24 8 -24 -3z"/>
<path d="M1126 2016 c-12 -44 4 -51 22 -11 15 32 15 32 -2 32 -8 0 -17 -10
-20 -21z"/>
<path d="M2615 2009 c-4 -6 -5 -12 -2 -15 2 -3 7 2 10 11 7 17 1 20 -8 4z"/>
<path d="M1540 1969 c0 -5 5 -7 10 -4 6 3 10 8 10 11 0 2 -4 4 -10 4 -5 0 -10
-5 -10 -11z"/>
<path d="M1138 1933 c5 -21 7 -23 10 -9 2 10 0 22 -6 28 -6 6 -7 0 -4 -19z"/>
<path d="M1200 1931 c0 -5 5 -13 10 -16 6 -3 10 -2 10 4 0 5 -4 13 -10 16 -5
3 -10 2 -10 -4z"/>
<path d="M1394 1929 c-10 -17 12 -32 36 -24 20 6 21 7 3 21 -22 16 -30 17 -39
3z"/>
<path d="M1151 1804 c0 -11 3 -14 6 -6 3 7 2 16 -1 19 -3 4 -6 -2 -5 -13z"/>
<path d="M2135 818 c2 -35 4 -65 4 -68 1 -3 25 -3 55 -2 70 5 91 25 87 89 -1
26 -44 43 -107 43 l-43 0 4 -62z"/>
<path d="M1342 654 l-4 -216 66 4 c79 5 111 25 144 88 28 56 31 187 6 250 -22
56 -81 90 -155 90 l-54 0 -3 -216z m188 -3 c0 -6 -4 -13 -10 -16 -5 -3 -10 1
-10 9 0 9 5 16 10 16 6 0 10 -4 10 -9z"/>
<path d="M2130 510 l0 -80 61 0 c33 0 69 4 79 10 27 14 41 64 28 100 -14 40
-35 50 -107 50 l-61 0 0 -80z"/>
</g>
</svg>
